<svg width="121" height="120" viewBox="0 0 121 120" fill="none" xmlns="http://www.w3.org/2000/svg">
<path fill-rule="evenodd" clip-rule="evenodd" d="M73.5135 52.4521C67.1511 45.5654 56.4651 45.0808 49.6508 51.3241C42.8401 57.564 42.4365 68.1982 48.7958 75.0815C51.2613 77.7503 54.3754 79.4572 57.6639 80.1844C58.4728 80.3633 58.9835 81.164 58.8047 81.9729C58.6258 82.7818 57.8251 83.2925 57.0162 83.1137C53.1486 82.2584 49.4858 80.2494 46.5922 77.1173C39.1254 69.0351 39.5666 56.4944 47.6241 49.1121C55.678 41.7333 68.2533 42.3376 75.717 50.4164C78.9141 53.8769 80.6623 58.1564 80.9821 62.4968C81.043 63.323 80.4226 64.0421 79.5964 64.103C78.7702 64.1639 78.0511 63.5435 77.9902 62.7173C77.7188 59.0337 76.2366 55.3997 73.5135 52.4521Z" fill="black"/>
<path fill-rule="evenodd" clip-rule="evenodd" d="M68.0115 57.6962C64.5928 53.9957 58.7954 53.7575 55.0653 57.175C51.3389 60.5891 51.0956 66.3516 54.511 70.0484C55.376 70.9847 56.3901 71.6974 57.4831 72.1863C58.2393 72.5246 58.5781 73.4118 58.2398 74.1681C57.9015 74.9243 57.0143 75.2631 56.2581 74.9248C54.8023 74.2736 53.4533 73.3245 52.3075 72.0842C47.7598 67.1618 48.0921 59.4951 53.0387 54.963C57.9818 50.4341 65.6707 50.7416 70.2151 55.6604C71.5336 57.0876 72.4443 58.75 72.9491 60.5014C73.1785 61.2975 72.7192 62.1288 71.9232 62.3582C71.1272 62.5876 70.2959 62.1283 70.0665 61.3323C69.6883 60.0203 69.0063 58.7729 68.0115 57.6962Z" fill="black"/>
<path d="M74.6978 112.982L86.4338 94.3295L106.623 86.6985L64.1016 67.4177L74.6978 112.982Z" fill="#E5AAE5"/>
<path fill-rule="evenodd" clip-rule="evenodd" d="M63.1427 66.2571C63.5843 65.895 64.1932 65.8151 64.7133 66.0509L107.234 85.3316C107.786 85.582 108.134 86.1401 108.114 86.746C108.095 87.3519 107.712 87.8865 107.145 88.1008L87.4275 95.5539L75.9596 113.78C75.6372 114.293 75.0384 114.561 74.4414 114.461C73.8443 114.36 73.3662 113.911 73.229 113.321L67.9309 90.5391C67.7433 89.7322 68.2453 88.9259 69.0522 88.7383C69.8591 88.5506 70.6653 89.0526 70.8529 89.8595L75.3362 109.138L85.1565 93.53C85.3305 93.2534 85.59 93.0412 85.8957 92.9257L102.705 86.5719L66.2435 70.0388L68.2039 78.4684C68.3915 79.2753 67.8895 80.0815 67.0826 80.2692C66.2757 80.4568 65.4695 79.9548 65.2818 79.1479L62.6328 67.7568C62.5034 67.2006 62.7011 66.6192 63.1427 66.2571Z" fill="black"/>
<path fill-rule="evenodd" clip-rule="evenodd" d="M57.75 104C57.75 103.172 58.4216 102.5 59.25 102.5H59.2501C60.0785 102.5 60.7501 103.172 60.7501 104C60.7501 104.829 60.0785 105.5 59.2501 105.5H59.25C58.4216 105.5 57.75 104.829 57.75 104Z" fill="black"/>
<path fill-rule="evenodd" clip-rule="evenodd" d="M24.5 9V102.562H53.9404C54.7688 102.562 55.4404 103.234 55.4404 104.062C55.4404 104.891 54.7688 105.562 53.9404 105.562H23.3119C22.3112 105.562 21.5 104.751 21.5 103.751V7.81194C21.5 6.81122 22.3112 6 23.3119 6H69.9986C70.3983 6 70.7933 6.13239 71.116 6.38475L95.0544 25.1097C95.4935 25.4531 95.75 25.9795 95.75 26.5369V62.7241C95.75 63.5525 95.0784 64.2241 94.25 64.2241C93.4216 64.2241 92.75 63.5525 92.75 62.7241V27.1159L69.5901 9H24.5Z" fill="black"/>
<path fill-rule="evenodd" clip-rule="evenodd" d="M68.625 27.9658V9.3877H71.625V26.7758H95.5001V29.7758H70.435C69.4354 29.7758 68.625 28.9654 68.625 27.9658Z" fill="black"/>
</svg>
