<svg width="121" height="120" viewBox="0 0 121 120" fill="none" xmlns="http://www.w3.org/2000/svg">
<path fill-rule="evenodd" clip-rule="evenodd" d="M67 80C67 80.8284 66.3284 81.5 65.5 81.5H25.5C24.6716 81.5 24 80.8284 24 80C24 79.1716 24.6716 78.5 25.5 78.5H65.5C66.3284 78.5 67 79.1716 67 80Z" fill="black"/>
<path fill-rule="evenodd" clip-rule="evenodd" d="M43.25 23.5C43.25 22.1193 44.3693 21 45.75 21H104.456C105.837 21 106.956 22.1193 106.956 23.5V29.0376C106.956 29.866 106.284 30.5376 105.456 30.5376C104.628 30.5376 103.956 29.866 103.956 29.0376V24H46.25V49.0181H63.4109C64.2394 49.0181 64.9109 49.6897 64.9109 50.5181C64.9109 51.3466 64.2394 52.0181 63.4109 52.0181H45.75C44.3693 52.0181 43.25 50.8989 43.25 49.5181V23.5Z" fill="black"/>
<path fill-rule="evenodd" clip-rule="evenodd" d="M67.125 50.25C67.125 49.4216 67.7966 48.75 68.625 48.75H68.6251C69.4535 48.75 70.1251 49.4216 70.1251 50.25C70.1251 51.0784 69.4535 51.75 68.6251 51.75H68.625C67.7966 51.75 67.125 51.0784 67.125 50.25Z" fill="black"/>
<path fill-rule="evenodd" clip-rule="evenodd" d="M14.5 63.2258H59.6969C60.5253 63.2258 61.1969 62.5543 61.1969 61.7258C61.1969 60.8974 60.5253 60.2258 59.6969 60.2258H14C12.6193 60.2258 11.5 61.3451 11.5 62.7258V94.3476C11.5 95.7283 12.6193 96.8476 14 96.8476H105.394C106.775 96.8476 107.894 95.7283 107.894 94.3476V73.6802C107.894 72.8518 107.222 72.1802 106.394 72.1802C105.565 72.1802 104.894 72.8518 104.894 73.6802V93.8476H14.5V63.2258Z" fill="black"/>
<path fill-rule="evenodd" clip-rule="evenodd" d="M110.497 46.5129C111.396 47.1838 111.567 48.4627 110.877 49.3468L88.1814 78.4074C87.8198 78.8704 87.2729 79.151 86.6859 79.1747L77.292 79.5544C76.3583 79.5921 75.523 78.9783 75.28 78.0761L72.8908 69.2035C72.7273 68.5965 72.8587 67.948 73.2456 67.4526L96.0857 38.1994C96.755 37.3422 97.9867 37.1769 98.8583 37.8274L110.497 46.5129Z" fill="#FFDD66"/>
<path fill-rule="evenodd" clip-rule="evenodd" d="M77.1944 77.9507L87.9237 77.9328L110.872 48.3923L97.0663 38.1884L92.1694 44.5302C91.6631 45.1859 90.7211 45.307 90.0654 44.8007C89.4097 44.2944 89.2885 43.3524 89.7949 42.6967L94.991 35.9673C95.8223 34.8907 97.3618 34.6763 98.4557 35.4848L113.067 46.2841C114.196 47.1187 114.417 48.7194 113.555 49.8283L90.143 79.9661C89.6703 80.5746 88.9434 80.9312 88.1729 80.9324L76.8341 80.9513C75.7463 80.9531 74.7822 80.2513 74.4497 79.2155L71.0359 68.583C70.7836 67.7971 70.9354 66.9373 71.4417 66.2854L83.3551 50.9455C83.8632 50.2913 84.8055 50.1728 85.4598 50.6809C86.1141 51.1891 86.2326 52.1314 85.7244 52.7857L73.9729 67.9171L77.1944 77.9507Z" fill="black"/>
<path fill-rule="evenodd" clip-rule="evenodd" d="M11.5 23.5C11.5 22.1193 12.6193 21 14 21H36.2824C37.6631 21 38.7824 22.1193 38.7824 23.5V49.5181C38.7824 50.8988 37.6631 52.0181 36.2824 52.0181H14C12.6193 52.0181 11.5 50.8988 11.5 49.5181V23.5ZM14.5 24V49.0181H35.7824V24H14.5Z" fill="black"/>
</svg>
