<svg width="121" height="120" viewBox="0 0 121 120" fill="none" xmlns="http://www.w3.org/2000/svg">
<path fill-rule="evenodd" clip-rule="evenodd" d="M29.3594 110C29.3594 109.172 30.0309 108.5 30.8594 108.5L82.9308 108.5L82.9308 102.857C82.9308 102.029 83.6024 101.357 84.4308 101.357C85.2592 101.357 85.9308 102.029 85.9308 102.857L85.9308 109.792C85.9308 110.735 85.166 111.5 84.2225 111.5L30.8594 111.5C30.0309 111.5 29.3594 110.829 29.3594 110Z" fill="black"/>
<path fill-rule="evenodd" clip-rule="evenodd" d="M11.5 20.9227C11.5 19.9793 12.2648 19.2144 13.2083 19.2144H20.1429C20.9713 19.2144 21.6429 19.8859 21.6429 20.7144C21.6429 21.5428 20.9713 22.2144 20.1429 22.2144H14.5V104.911C14.5 105.739 13.8284 106.411 13 106.411C12.1716 106.411 11.5 105.739 11.5 104.911V20.9227Z" fill="black"/>
<path fill-rule="evenodd" clip-rule="evenodd" d="M23.5938 11.5V99.4091H94.1232V55.4545H95.6232H97.1232V100.597C97.1232 101.598 96.3119 102.409 95.3112 102.409H22.4057C21.405 102.409 20.5938 101.598 20.5938 100.597V10.3119C20.5938 9.31124 21.405 8.5 22.4057 8.5H58.8585C58.8584 8.5 58.8585 8.5 58.8585 8.5H95.3112C96.2854 8.5 97.1232 9.28076 97.1232 10.3078L97.1232 55.4545C97.1232 55.4548 97.1232 55.4545 95.6232 55.4545C94.1232 55.4545 94.1232 55.4548 94.1232 55.4545L94.1232 11.5H58.859C58.8589 11.5 58.859 11.5 58.859 11.5H23.5938Z" fill="black"/>
<path fill-rule="evenodd" clip-rule="evenodd" d="M11.6094 109.688C11.6094 108.859 12.2809 108.188 13.1094 108.188H13.1095C13.9379 108.188 14.6095 108.859 14.6095 109.688C14.6095 110.516 13.9379 111.188 13.1095 111.188H13.1094C12.2809 111.188 11.6094 110.516 11.6094 109.688Z" fill="black"/>
<path d="M104.378 41.25C104.378 54.9266 104.378 66.271 104.378 66.271L114.539 66.271L95.8153 91.25L77.1048 66.271L87.0938 66.271L87.0938 41.25" fill="#FFA07A"/>
<path fill-rule="evenodd" clip-rule="evenodd" d="M95.815 92.75C95.3427 92.7499 94.8979 92.5273 94.6147 92.1493L75.9043 67.1703C75.5637 66.7157 75.5092 66.1077 75.7634 65.5998C76.0175 65.0918 76.5368 64.771 77.1048 64.771L85.5938 64.771L85.5938 41.25C85.5938 40.4216 86.2653 39.75 87.0938 39.75L104.378 39.75C105.206 39.75 105.878 40.4216 105.878 41.25L105.878 47.5C105.878 48.3284 105.206 49 104.378 49C103.549 49 102.878 48.3284 102.878 47.5L102.878 42.75L88.5938 42.75L88.5938 66.271C88.5938 67.0994 87.9222 67.771 87.0938 67.771L80.1025 67.771L95.8157 88.7485L111.54 67.771L104.378 67.771C103.549 67.771 102.878 67.0994 102.878 66.271L102.878 57.6534C102.878 56.825 103.549 56.1534 104.378 56.1534C105.206 56.1534 105.878 56.825 105.878 57.6534L105.878 64.771L114.539 64.771C115.107 64.771 115.626 65.0919 115.881 65.6C116.135 66.1081 116.08 66.7161 115.739 67.1707L97.0155 92.1497C96.7322 92.5276 96.2874 92.7501 95.815 92.75Z" fill="black"/>
<path fill-rule="evenodd" clip-rule="evenodd" d="M33.1094 31.25C33.1094 30.4216 33.7809 29.75 34.6094 29.75H79.6094C80.4378 29.75 81.1094 30.4216 81.1094 31.25C81.1094 32.0784 80.4378 32.75 79.6094 32.75H34.6094C33.7809 32.75 33.1094 32.0784 33.1094 31.25Z" fill="black"/>
<path fill-rule="evenodd" clip-rule="evenodd" d="M33.1094 41.25C33.1094 40.4216 33.7809 39.75 34.6094 39.75H64.6094C65.4378 39.75 66.1094 40.4216 66.1094 41.25C66.1094 42.0784 65.4378 42.75 64.6094 42.75H34.6094C33.7809 42.75 33.1094 42.0784 33.1094 41.25Z" fill="black"/>
</svg>
